:SAMPLES-PER-SECOND 30
:FRAME-RANGE 1-3549
:FULLY-SPECIFIED
:DEGREES
1110
root  -36.7934 38.6647 17.9551 4.16418 9.81711 -1.11993
RightUpLeg  -2.49166 -6.97046 1.08175
RightLeg  19.8113 -9.09065 -3.25381
RightFoot  -19.1737 0.261331 5.71312
RightToes  1.218e-010 1.26228e-014 -6.01869e-014
Spine  -7.94088 2.32095 7.91342
Spine1  10.0183 2.62108 -0.814315
HEad  22.4945 9.63357 3.96576
LeftShoulder1  -0.084369 3.62294 -20.1569
LeftArm  10.2422 9.8648 -27.4566
LeftForeArm  31.3973 -8.40623 -12.1816
LeftHand  -0.0337131 4.73292 1.69295
RightShoulder  2.06288 2.42321 30.1257
RightArm  6.64181 16.2765 47.5305
RightForeArm  84.7285 -3.25245 15.3861
RightHand  0.282842 -9.79158 -8.46678
LeftUpLeg  -11.418 -3.4914 17.5896
LeftLeg  33.8329 14.075 10.2836
LeftFoot  -0.784796 0.152667 -1.60171
LeftToes  -1.43952e-010 7.51141e-011 -1.22592e-011
1111
root  -37.2133 38.6418 18.4126 4.57782 7.80304 -0.701538
RightUpLeg  -2.22377 -6.25107 1.17462
RightLeg  19.5103 -8.08124 -2.7908
RightFoot  -19.7043 0.215673 4.77487
RightToes  1.218e-010 1.26228e-014 -6.01869e-014
Spine  -7.43464 2.33732 8.3911
Spine1  10.1204 2.75301 -1.07881
HEad  22.4139 12.1053 2.85925
LeftShoulder1  -0.342617 4.51611 -22.0959
LeftArm  13.3246 13.131 -30.0028
LeftForeArm  33.3309 -7.97001 -12.768
LeftHand  -0.0314817 4.59787 1.09714
RightShoulder  1.95407 2.06426 30.504
RightArm  -8.74795 14.1257 48.3264
RightForeArm  97.5754 -5.40076 12.1336
RightHand  0.574691 -11.414 -11.7544
LeftUpLeg  -13.9472 -2.98168 15.5681
LeftLeg  39.0638 13.0431 11.4641
LeftFoot  -4.71493 0.169698 -2.44202
LeftToes  -1.43952e-010 7.51141e-011 -1.22592e-011
1112
root  -37.5519 38.6353 18.8758 5.1701 5.37543 0.0165405
RightUpLeg  -2.25832 -5.21553 0.861767
RightLeg  19.4575 -6.83706 -2.56575
RightFoot  -20.1576 0.172199 4.00467
RightToes  1.218e-010 1.26228e-014 -6.01869e-014
Spine  -6.51659 2.71744 9.07036
Spine1  9.45845 3.4329 -2.23234
HEad  22.771 13.8335 2.34578
LeftShoulder1  -0.536081 5.13529 -23.1516
LeftArm  14.2767 16.4554 -33.3592
LeftForeArm  35.1391 -7.45293 -13.1271
LeftHand  -0.0261085 4.44074 0.746902
RightShoulder  1.85823 1.78843 30.5858
RightArm  -13.2019 11.1278 48.4695
RightForeArm  96.7824 -5.14584 9.76325
RightHand  0.690673 -11.7252 -13.2365
LeftUpLeg  -16.6896 -2.42715 12.4073
LeftLeg  42.356 9.9014 9.90883
LeftFoot  -6.66509 0.139605 -2.43888
LeftToes  -1.43952e-010 7.51141e-011 -1.22592e-011
1113
root  -37.8358 38.6283 19.3695 5.95154 3.2634 0.757446
RightUpLeg  -2.4692 -4.47795 0.391813
RightLeg  19.4763 -5.64345 -2.33229
RightFoot  -20.6046 0.155104 3.63712
RightToes  1.218e-010 1.26228e-014 -6.01869e-014
Spine  -6.08421 3.15232 9.56644
Spine1  9.28206 4.08144 -3.30532
HEad  22.9183 15.0414 1.98593
LeftShoulder1  -0.773565 5.85007 -24.3041
LeftArm  12.1694 19.0161 -36.4033
LeftForeArm  38.5482 -6.97705 -13.0427
LeftHand  -0.0202833 4.06969 -0.178991
RightShoulder  1.79394 1.65444 30.264
RightArm  -15.7735 8.86535 48.0787
RightForeArm  94.5118 -5.0427 8.43906
RightHand  0.649756 -11.257 -13.4562
LeftUpLeg  -19.8061 -1.76027 8.77025
LeftLeg  43.5704 7.19855 7.66537
LeftFoot  -7.86202 0.139194 -3.0295
LeftToes  -1.43952e-010 7.51141e-011 -1.22592e-011
1114
root  -38.097 38.6743 19.8844 6.70648 1.67404 1.61279
RightUpLeg  -2.26972 -4.37252 -0.358666
RightLeg  18.8146 -4.37957 -1.87816
RightFoot  -20.7051 0.1099 3.05427
RightToes  1.218e-010 1.26228e-014 -6.01869e-014
Spine  -5.7662 3.56172 9.70258
Spine1  9.31939 4.63218 -4.24471
HEad  22.2845 15.7306 1.53696
LeftShoulder1  -0.959273 6.36895 -25.2495
LeftArm  8.09165 20.9489 -39.2984
LeftForeArm  39.7031 -6.10587 -12.8873
LeftHand  -0.0175307 3.82762 -0.262479
RightShoulder  1.8092 1.77804 29.6752
RightArm  -16.8757 7.41795 47.2651
RightForeArm  94.5418 -4.95627 7.90562
RightHand  0.523209 -10.7167 -12.1177
LeftUpLeg  -22.7955 -1.41872 4.80704
LeftLeg  42.4854 6.88663 7.0942
LeftFoot  -9.15535 0.127688 -3.81474
LeftToes  -1.43952e-010 7.51141e-011 -1.22592e-011
1115
root  -38.3426 38.7421 20.4245 7.24176 -0.0175476 2.50739
RightUpLeg  -1.71907 -3.96937 -1.18011
RightLeg  17.9176 -3.31459 -1.5753
RightFoot  -20.6144 0.0847776 2.76685
RightToes  1.218e-010 1.26228e-014 -6.01869e-014
Spine  -5.25742 4.16026 9.68728
Spine1  9.45202 5.39499 -5.18364
HEad  21.7505 16.1681 1.32302
LeftShoulder1  -1.06028 6.64032 -25.7447
LeftArm  3.94548 22.1774 -42.2003
LeftForeArm  39.7693 -4.94925 -12.7394
LeftHand  -0.021769 3.89612 0.0462911
RightShoulder  1.84587 1.98533 28.9615
RightArm  -17.4809 6.56574 46.2049
RightForeArm  95.7649 -4.84658 7.57652
RightHand  0.422466 -10.3857 -10.6413
LeftUpLeg  -25.2025 -0.988929 0.7809
LeftLeg  39.2383 8.80474 8.00147
LeftFoot  -9.48397 0.121398 -3.98076
LeftToes  -1.43952e-010 7.51141e-011 -1.22592e-011
1116
root  -38.5661 38.7903 20.9963 7.76428 -1.75357 3.2298
RightUpLeg  -1.16783 -3.24718 -1.8437
RightLeg  17.0513 -2.50595 -1.40101
RightFoot  -20.582 0.0813571 2.73153
RightToes  1.218e-010 1.26228e-014 -6.01869e-014
Spine  -4.93567 4.78873 9.78538
Spine1  9.85813 6.21721 -6.15911
HEad  21.456 16.9295 1.1762
LeftShoulder1  -1.10521 6.74855 -26.0595
LeftArm  1.97246 23.0348 -44.545
LeftForeArm  39.5869 -4.99314 -12.4874
LeftHand  -0.0274136 3.97138 0.510124
RightShoulder  1.87712 2.21625 28.0469
RightArm  -18.4333 6.40176 45.4275
RightForeArm  97.267 -4.67523 6.94792
RightHand  0.376098 -10.3243 -9.72655
LeftUpLeg  -27.1096 -0.641892 -2.89614
LeftLeg  33.907 11.8828 8.81487
LeftFoot  -8.54343 0.139119 -3.59803
LeftToes  -1.43952e-010 7.51141e-011 -1.22592e-011
1117
root  -38.7911 38.8166 21.6301 8.11737 -3.51451 3.81665
RightUpLeg  -0.447881 -2.63524 -2.4761
RightLeg  16.3836 -1.55936 -1.13482
RightFoot  -20.5762 0.0705963 2.5995
RightToes  1.218e-010 1.26228e-014 -6.01869e-014
Spine  -4.53047 5.30576 9.5155
Spine1  10.0637 6.86787 -6.68705
HEad  21.7309 18.3216 1.31631
LeftShoulder1  -1.13859 6.82959 -26.2746
LeftArm  1.79159 23.6056 -46.122
LeftForeArm  39.7572 -5.65183 -12.3048
LeftHand  -0.0312933 3.97569 0.852779
RightShoulder  1.92664 2.46158 27.4454
RightArm  -19.3291 6.91854 44.3132
RightForeArm  98.0952 -4.53904 6.34609
RightHand  0.280632 -10.2089 -7.75067
LeftUpLeg  -28.2382 -0.121616 -6.09062
LeftLeg  26.5872 13.9387 7.79542
LeftFoot  -5.95966 0.164626 -2.74128
LeftToes  -1.43952e-010 7.51141e-011 -1.22592e-011
1118
root  -39.0156 38.7945 22.3441 8.3877 -5.08456 3.93481
RightUpLeg  0.526195 -1.99431 -2.6324
RightLeg  15.7438 -0.744055 -0.924163
RightFoot  -20.5547 0.0535411 2.39205
RightToes  1.218e-010 1.26228e-014 -6.01869e-014
Spine  -4.46621 5.59003 9.26931
Spine1  10.4886 7.17328 -6.73261
HEad  22.7893 20.6489 1.58367
LeftShoulder1  -1.14578 6.85922 -26.2046
LeftArm  2.39196 24.0938 -47.3163
LeftForeArm  39.7117 -6.64847 -12.1001
LeftHand  -0.0347752 4.01246 1.17631
RightShoulder  1.95793 2.62593 27.0363
RightArm  -20.5427 8.01888 43.3064
RightForeArm  98.5347 -4.37304 5.45371
RightHand  0.378351 -10.743 -9.07417
LeftUpLeg  -28.858 0.577469 -8.45751
LeftLeg  18.2231 14.0198 5.40482
LeftFoot  -3.13385 0.233296 -2.98931
LeftToes  -1.43952e-010 7.51141e-011 -1.22592e-011
1119
root  -39.2354 38.7012 23.1259 8.71777 -6.53934 3.63464
RightUpLeg  1.53943 -1.63654 -2.5047
RightLeg  15.3024 0.526874 -0.499428
RightFoot  -20.7494 0.0310243 2.08464
RightToes  1.218e-010 1.26228e-014 -6.01869e-014
Spine  -4.41136 5.60544 9.07762
Spine1  10.5054 7.1294 -6.56478
HEad  24.4006 24.0304 1.70722
LeftShoulder1  -1.16103 6.95806 -25.7317
LeftArm  1.45607 24.6098 -48.3134
LeftForeArm  40.3817 -6.84961 -11.8935
LeftHand  -0.0377913 3.89279 1.37888
RightShoulder  1.96191 2.71161 26.6177
RightArm  -21.8636 9.18977 42.6164
RightForeArm  97.184 -4.28711 4.5445
RightHand  0.403737 -10.8449 -9.43417
LeftUpLeg  -29.4421 -2.83754 -7.76503
LeftLeg  10.5211 18.1314 2.90915
LeftFoot  -0.830959 0.252729 -2.69382
LeftToes  -1.43952e-010 7.51141e-011 -1.22592e-011
1120
root  -39.4728 38.5648 24.0063 8.96191 -8.01483 3.16656
RightUpLeg  2.80662 -1.40319 -2.26633
RightLeg  14.9661 1.80797 -0.107575
RightFoot  -21.0264 0.0172826 1.88468
RightToes  1.218e-010 1.26228e-014 -6.01869e-014
Spine  -4.4412 5.45736 8.66681
Spine1  10.4565 6.87939 -6.18457
HEad  25.7662 27.6687 1.72725
LeftShoulder1  -1.14159 6.96192 -25.1445
LeftArm  0.959987 24.9365 -48.7421
LeftForeArm  40.3518 -6.89154 -11.8116
LeftHand  -0.0389182 3.95864 1.41165
RightShoulder  1.97289 2.77045 26.4784
RightArm  -21.9375 10.1676 41.8823
RightForeArm  92.8637 -4.49608 4.59152
RightHand  0.441173 -10.6154 -10.6051
LeftUpLeg  -30.0601 -5.65893 -6.91763
LeftLeg  3.98197 21.2041 1.59027
LeftFoot  0.332424 0.291342 -2.87021
LeftToes  -1.43952e-010 7.51141e-011 -1.22592e-011
1121
root  -39.7237 38.3841 24.9723 9.24194 -9.80113 2.61841
RightUpLeg  4.03116 -0.806175 -2.02888
RightLeg  14.9788 3.07279 0.268242
RightFoot  -21.3199 -0.00113479 1.64077
RightToes  1.218e-010 1.26228e-014 -6.01869e-014
Spine  -4.42758 5.3381 8.21831
Spine1  10.2948 6.71838 -6.00339
HEad  26.2135 30.8919 1.09313
LeftShoulder1  -1.10325 6.89275 -24.6591
LeftArm  1.28678 24.6132 -48.4191
LeftForeArm  40.2718 -6.51229 -11.975
LeftHand  -0.0377755 4.06255 1.48358
RightShoulder  1.9741 2.78934 26.3947
RightArm  -21.4745 10.5251 41.6888
RightForeArm  86.3247 -4.87222 5.06429
RightHand  0.410441 -9.76296 -11.73
LeftUpLeg  -30.9693 -6.73814 -6.48434
LeftLeg  -0.0593989 23.4986 1.49399
LeftFoot  -0.331919 0.258518 -2.66233
LeftToes  -1.43952e-010 7.51141e-011 -1.22592e-011
1122
root  -40.0015 38.1369 26.0411 9.49268 -11.6453 1.81659
RightUpLeg  5.18434 0.396981 -1.50279
RightLeg  15.7285 3.91846 0.641143
RightFoot  -21.8138 0.0114334 1.73682
RightToes  1.218e-010 1.26228e-014 -6.01869e-014
Spine  -4.37036 5.25173 7.94636
Spine1  10.0743 6.56332 -5.83789
HEad  25.1028 33.4842 -0.432328
LeftShoulder1  -0.980364 6.55028 -24.0992
LeftArm  1.60934 23.7283 -47.8576
LeftForeArm  41.0209 -5.68827 -12.2431
LeftHand  -0.035666 4.17998 1.35477
RightShoulder  1.95115 2.76224 26.1496
RightArm  -20.6872 10.7722 42.096
RightForeArm  78.7038 -5.30568 5.67303
RightHand  0.336698 -8.57833 -13.1902
LeftUpLeg  -31.9817 -5.91143 -5.7595
LeftLeg  -1.06341 26.2851 0.819838
LeftFoot  -1.3015 0.32621 -3.62489
LeftToes  -1.43952e-010 7.51141e-011 -1.22592e-011
